<svg xmlns="http://www.w3.org/2000/svg" width="21" height="21">
    <defs>
        <filter id="prefix__a">
            <feFlood flood-color="#C7B299" flood-opacity="1" result="floodOut"/>
            <feComposite in="floodOut" in2="SourceGraphic" operator="atop" result="compOut"/>
            <feBlend in="compOut" in2="SourceGraphic"/>
        </filter>
    </defs>
    <g filter="url(#prefix__a)">
        <path fill-rule="evenodd" d="M10.5 0C4.702 0 .001 4.701.001 10.499c0 5.799 4.701 10.499 10.499 10.499 5.799 0 10.498-4.7 10.498-10.499C20.998 4.701 16.299 0 10.5 0zm3.289 10.996L9.25 15.535c-.273.274-.717.274-.99 0s-.273-.716 0-.99l4.047-4.046L8.26 6.452c-.273-.273-.273-.716 0-.99.273-.272.717-.272.99 0l4.539 4.54c.138.138.206.318.205.497 0 .18-.067.36-.205.497z"/>
    </g>
</svg>
